<svg width="60" height="60" viewBox="0 0 60 60" fill="none" xmlns="http://www.w3.org/2000/svg">
<path d="M17.3684 23.6842C20.8565 23.6842 23.6842 20.8565 23.6842 17.3684C23.6842 13.8803 20.8565 11.0526 17.3684 11.0526C13.8803 11.0526 11.0526 13.8803 11.0526 17.3684C11.0526 20.8565 13.8803 23.6842 17.3684 23.6842Z" fill="black"/>
<path d="M17.3684 48.9474C20.8565 48.9474 23.6842 46.1197 23.6842 42.6316C23.6842 39.1435 20.8565 36.3158 17.3684 36.3158C13.8803 36.3158 11.0526 39.1435 11.0526 42.6316C11.0526 46.1197 13.8803 48.9474 17.3684 48.9474Z" fill="black"/>
<path d="M42.6316 48.9474C46.1197 48.9474 48.9474 46.1197 48.9474 42.6316C48.9474 39.1435 46.1197 36.3158 42.6316 36.3158C39.1435 36.3158 36.3158 39.1435 36.3158 42.6316C36.3158 46.1197 39.1435 48.9474 42.6316 48.9474Z" fill="black"/>
<path d="M14.2105 17.3684H20.5263V42.6316H14.2105V17.3684Z" fill="black"/>
<path d="M14.2105 18.6764L18.6765 14.2104L44.3556 39.8896L39.8897 44.3555L14.2105 18.6764Z" fill="black"/>
<path d="M0 9.47368C0 4.24151 4.24151 0 9.47368 0H50.5263C55.7585 0 60 4.24151 60 9.47368V17.3684H53.6842V11.0526C53.6842 8.43655 51.5635 6.31579 48.9474 6.31579H11.0526C8.43655 6.31579 6.31579 8.43655 6.31579 11.0526V48.9474C6.31579 51.5635 8.43655 53.6842 11.0526 53.6842H48.9474C51.5635 53.6842 53.6842 51.5635 53.6842 48.9474V42.6316H60V50.5263C60 55.7585 55.7585 60 50.5263 60H9.47369C4.24151 60 0 55.7585 0 50.5263V9.47368Z" fill="black"/>
</svg>
