<svg width="33" height="32" viewBox="0 0 33 32" fill="none" xmlns="http://www.w3.org/2000/svg">
<path d="M16.4724 1.37512e-06C7.37137 -0.00367088 0 7.34818 0 16.4223C0 23.5979 4.61125 29.6975 11.0331 31.9376C11.898 32.1542 11.7655 31.541 11.7655 31.1223V28.2763C6.77151 28.8602 6.5691 25.5625 6.2342 25.0117C5.55705 23.8586 3.95618 23.5648 4.4346 23.014C5.57177 22.4301 6.73103 23.1609 8.07429 25.1402C9.04585 26.5761 10.9411 26.3337 11.9017 26.095C12.1114 25.232 12.5604 24.4609 13.1787 23.8623C8.00436 22.9369 5.84778 19.7861 5.84778 16.0404C5.84778 14.2226 6.44765 12.5518 7.62531 11.204C6.87455 8.98233 7.69523 7.0801 7.80563 6.79734C9.94381 6.60638 12.1666 8.325 12.3396 8.46087C13.5541 8.13404 14.9415 7.96144 16.4945 7.96144C18.0549 7.96144 19.446 8.14138 20.6715 8.47188C21.0874 8.15607 23.1483 6.67983 25.1355 6.85977C25.2423 7.14253 26.0445 9.00069 25.3379 11.193C26.5303 12.5444 27.1376 14.23 27.1376 16.0514C27.1376 19.8045 24.9663 22.9589 19.7772 23.8696C20.2217 24.3058 20.5746 24.8259 20.8153 25.3997C21.0561 25.9735 21.1798 26.5894 21.1794 27.2114V31.3427C21.2088 31.6732 21.1794 32 21.7314 32C28.249 29.8077 32.9412 23.664 32.9412 16.426C32.9412 7.34818 25.5661 1.37512e-06 16.4724 1.37512e-06Z" fill="white"/>
</svg>
