<svg width="470" height="204" viewBox="0 0 470 204" fill="none" xmlns="http://www.w3.org/2000/svg">
<g clip-path="url(#clip0_311_82)">
<path d="M423.954 84.156H148.202C147.031 84.156 145.909 84.6214 145.081 85.4498C144.253 86.2782 143.788 87.4017 143.788 88.5732C143.788 89.7447 144.253 90.8682 145.081 91.6966C145.909 92.525 147.031 92.9904 148.202 92.9904H156.013V198.662C156.013 199.834 156.478 200.957 157.306 201.786C158.134 202.614 159.257 203.08 160.428 203.08C161.599 203.08 162.722 202.614 163.55 201.786C164.377 200.957 164.843 199.834 164.843 198.662L164.91 92.9904H386.228L406.634 198.662C406.634 199.834 407.1 200.957 407.927 201.786C408.755 202.614 409.878 203.08 411.049 203.08C412.22 203.08 413.343 202.614 414.171 201.786C414.999 200.957 415.464 199.834 415.464 198.662L416.748 92.9904H423.954C425.125 92.9904 426.248 92.525 427.076 91.6966C427.903 90.8682 428.369 89.7447 428.369 88.5732C428.369 87.4017 427.903 86.2782 427.076 85.4498C426.248 84.6214 425.125 84.156 423.954 84.156Z" fill="#CCCCCC"/>
<path d="M196 64.4738V83.1793H149.162C147.934 83.222 146.71 83.0224 145.56 82.5918C144.409 82.1613 143.355 81.5082 142.457 80.67C141.559 79.8317 140.834 78.8246 140.325 77.7063C139.816 76.5879 139.532 75.3801 139.489 74.1519C139.446 72.9237 139.646 71.6991 140.076 70.548C140.506 69.3969 141.159 68.3419 141.997 67.4432C142.835 66.5445 143.841 65.8197 144.959 65.3102C146.077 64.8007 147.284 64.5165 148.511 64.4738C148.728 64.4662 148.945 64.4662 149.162 64.4738L196 64.4738Z" fill="#F2F2F2"/>
<path d="M197.151 83.0354C197.151 83.2261 197.075 83.4091 196.94 83.544C196.805 83.6789 196.622 83.7547 196.432 83.7548H148.327C145.716 83.753 143.212 82.7137 141.366 80.8655C139.52 79.0173 138.483 76.5113 138.483 73.8985C138.483 71.2856 139.52 68.7796 141.366 66.9314C143.212 65.0832 145.716 64.0439 148.327 64.0421H196.432C196.526 64.0419 196.62 64.0603 196.707 64.0963C196.795 64.1324 196.874 64.1853 196.941 64.2522C197.008 64.319 197.061 64.3984 197.098 64.4858C197.134 64.5732 197.153 64.6669 197.153 64.7616C197.153 64.8562 197.134 64.9499 197.098 65.0373C197.061 65.1247 197.008 65.2041 196.941 65.2709C196.874 65.3378 196.795 65.3907 196.707 65.4268C196.62 65.4628 196.526 65.4812 196.432 65.481H148.327C146.098 65.4844 143.962 66.3727 142.387 67.9509C140.812 69.5291 139.927 71.6682 139.927 73.8985C139.927 76.1287 140.812 78.2678 142.387 79.846C143.962 81.4242 146.098 82.3125 148.327 82.3159H196.432C196.622 82.316 196.805 82.3918 196.94 82.5267C197.075 82.6616 197.151 82.8446 197.151 83.0354Z" fill="#3D957E"/>
<path d="M196 68.7904H145.667C145.629 68.7906 145.592 68.7757 145.565 68.749C145.538 68.7223 145.523 68.6859 145.522 68.6479C145.522 68.6098 145.537 68.5732 145.563 68.5459C145.59 68.5187 145.626 68.5032 145.664 68.5027H196C196.038 68.503 196.074 68.5184 196.101 68.5453C196.128 68.5723 196.143 68.6086 196.143 68.6465C196.143 68.6845 196.128 68.7209 196.101 68.7478C196.074 68.7747 196.038 68.7901 196 68.7904Z" fill="#CCCCCC"/>
<path d="M196 72.2438H145.667C145.629 72.244 145.592 72.2291 145.565 72.2024C145.538 72.1757 145.523 72.1393 145.522 72.1012C145.522 72.0631 145.537 72.0265 145.563 71.9993C145.59 71.9721 145.626 71.9565 145.664 71.956H196C196.038 71.9564 196.074 71.9717 196.101 71.9986C196.128 72.0256 196.143 72.062 196.143 72.0999C196.143 72.1378 196.128 72.1742 196.101 72.2011C196.074 72.2281 196.038 72.2434 196 72.2438Z" fill="#CCCCCC"/>
<path d="M196 75.6971H145.667C145.629 75.6973 145.592 75.6824 145.565 75.6557C145.538 75.629 145.523 75.5926 145.522 75.5545C145.522 75.5165 145.537 75.4798 145.563 75.4526C145.59 75.4254 145.626 75.4098 145.664 75.4093H196C196.038 75.4097 196.074 75.425 196.101 75.452C196.128 75.4789 196.143 75.5153 196.143 75.5532C196.143 75.5911 196.128 75.6275 196.101 75.6544C196.074 75.6814 196.038 75.6967 196 75.6971Z" fill="#CCCCCC"/>
<path d="M196 79.1504H145.667C145.629 79.1506 145.592 79.1357 145.565 79.109C145.538 79.0822 145.523 79.0459 145.522 79.0078C145.522 78.9697 145.537 78.9331 145.563 78.9059C145.59 78.8786 145.626 78.8631 145.664 78.8626H196C196.038 78.863 196.074 78.8783 196.101 78.9052C196.128 78.9322 196.143 78.9686 196.143 79.0065C196.143 79.0444 196.128 79.0808 196.101 79.1077C196.074 79.1346 196.038 79.15 196 79.1504Z" fill="#CCCCCC"/>
<path d="M187.171 44.7665V63.4719H140.332C137.853 63.5582 135.441 62.6556 133.627 60.9627C131.813 59.2697 130.746 56.9251 130.659 54.4446C130.573 51.9641 131.475 49.5509 133.167 47.7359C134.859 45.9209 137.203 44.8528 139.682 44.7665C139.899 44.7589 140.115 44.7589 140.332 44.7665H187.171Z" fill="#F2F2F2"/>
<path d="M188.321 63.328C188.321 63.5188 188.245 63.7018 188.111 63.8367C187.976 63.9716 187.793 64.0474 187.602 64.0475H139.498C136.885 64.0475 134.38 63.0091 132.532 61.1606C130.685 59.3122 129.647 56.8052 129.647 54.1911C129.647 51.5771 130.685 49.0701 132.532 47.2217C134.38 45.3732 136.885 44.3348 139.498 44.3348H187.602C187.697 44.3348 187.79 44.3534 187.877 44.3896C187.965 44.4257 188.044 44.4787 188.111 44.5455C188.177 44.6123 188.23 44.6917 188.267 44.7789C188.303 44.8662 188.321 44.9598 188.321 45.0543C188.321 45.1487 188.303 45.2423 188.267 45.3296C188.23 45.4169 188.177 45.4962 188.111 45.563C188.044 45.6298 187.965 45.6828 187.877 45.7189C187.79 45.7551 187.697 45.7737 187.602 45.7737H139.498C137.267 45.7737 135.127 46.6605 133.549 48.2391C131.972 49.8177 131.085 51.9587 131.085 54.1912C131.085 56.4236 131.972 58.5646 133.549 60.1432C135.127 61.7218 137.267 62.6086 139.498 62.6086H187.602C187.793 62.6087 187.976 62.6845 188.111 62.8194C188.245 62.9543 188.321 63.1373 188.321 63.328Z" fill="#3F3D56"/>
<path d="M187.171 49.0831H136.837C136.799 49.0833 136.763 49.0684 136.736 49.0417C136.709 49.015 136.693 48.9786 136.693 48.9406C136.693 48.9025 136.707 48.8658 136.734 48.8386C136.76 48.8114 136.797 48.7958 136.835 48.7953H187.171C187.209 48.7957 187.245 48.811 187.271 48.838C187.298 48.8649 187.313 48.9013 187.313 48.9392C187.313 48.9771 187.298 49.0135 187.271 49.0405C187.245 49.0674 187.209 49.0827 187.171 49.0831Z" fill="#CCCCCC"/>
<path d="M187.171 52.5364H136.837C136.799 52.5366 136.763 52.5218 136.736 52.495C136.709 52.4683 136.693 52.4319 136.693 52.3939C136.693 52.3558 136.707 52.3192 136.734 52.2919C136.76 52.2647 136.797 52.2492 136.835 52.2487H187.171C187.209 52.249 187.245 52.2644 187.271 52.2913C187.298 52.3183 187.313 52.3546 187.313 52.3925C187.313 52.4305 187.298 52.4669 187.271 52.4938C187.245 52.5207 187.209 52.5361 187.171 52.5364Z" fill="#CCCCCC"/>
<path d="M187.171 55.9897H136.837C136.799 55.9899 136.763 55.9751 136.736 55.9483C136.709 55.9216 136.693 55.8853 136.693 55.8472C136.693 55.8091 136.707 55.7725 136.734 55.7453C136.76 55.718 136.797 55.7025 136.835 55.702H187.171C187.209 55.7024 187.245 55.7177 187.271 55.7446C187.298 55.7716 187.313 55.808 187.313 55.8459C187.313 55.8838 187.298 55.9202 187.271 55.9471C187.245 55.974 187.209 55.9894 187.171 55.9897Z" fill="#CCCCCC"/>
<path d="M187.171 59.443H136.837C136.799 59.4432 136.763 59.4284 136.736 59.4016C136.709 59.3749 136.693 59.3385 136.693 59.3005C136.693 59.2624 136.707 59.2258 136.734 59.1985C136.76 59.1713 136.797 59.1558 136.835 59.1553H187.171C187.209 59.1557 187.245 59.171 187.271 59.1979C187.298 59.2249 187.313 59.2612 187.313 59.2992C187.313 59.3371 187.298 59.3734 187.271 59.4004C187.245 59.4273 187.209 59.4427 187.171 59.443Z" fill="#CCCCCC"/>
<path d="M241.658 150.347V134.037C241.658 133.316 241.372 132.625 240.862 132.115C240.353 131.605 239.662 131.319 238.941 131.319H177.135C176.415 131.319 175.724 131.605 175.214 132.115C174.705 132.625 174.418 133.316 174.418 134.037V150.347H241.658Z" fill="#CCCCCC"/>
<path d="M241.658 156.463H174.418V177.529H241.658V156.463Z" fill="#CCCCCC"/>
<path d="M174.418 183.645V199.955C174.418 200.676 174.705 201.367 175.214 201.877C175.724 202.387 176.415 202.673 177.135 202.673H238.941C239.662 202.673 240.353 202.387 240.862 201.877C241.372 201.367 241.658 200.676 241.658 199.955V183.645H174.418Z" fill="#CCCCCC"/>
<path d="M207.699 143.551C208.824 143.551 209.736 142.638 209.736 141.512C209.736 140.386 208.824 139.474 207.699 139.474C206.573 139.474 205.661 140.386 205.661 141.512C205.661 142.638 206.573 143.551 207.699 143.551Z" fill="white"/>
<path d="M207.699 170.734C208.824 170.734 209.736 169.821 209.736 168.695C209.736 167.569 208.824 166.656 207.699 166.656C206.573 166.656 205.661 167.569 205.661 168.695C205.661 169.821 206.573 170.734 207.699 170.734Z" fill="white"/>
<path d="M207.808 197.34C208.933 197.34 209.845 196.428 209.845 195.302C209.845 194.176 208.933 193.263 207.808 193.263C206.683 193.263 205.77 194.176 205.77 195.302C205.77 196.428 206.683 197.34 207.808 197.34Z" fill="white"/>
<path d="M234.035 112.723V131.428H187.196C184.718 131.513 182.308 130.609 180.496 128.917C178.683 127.224 177.616 124.88 177.53 122.401C177.444 119.922 178.345 117.509 180.035 115.695C181.726 113.88 184.067 112.811 186.545 112.723C186.762 112.715 186.979 112.715 187.196 112.723H234.035Z" fill="#F2F2F2"/>
<path d="M235.185 131.284C235.185 131.475 235.11 131.658 234.975 131.793C234.84 131.928 234.657 132.004 234.466 132.004H186.362C183.75 132.004 181.245 130.967 179.397 129.12C177.549 127.273 176.51 124.767 176.509 122.153C176.507 119.54 177.543 117.033 179.389 115.183C181.234 113.334 183.738 112.294 186.35 112.291H234.466C234.561 112.291 234.655 112.309 234.742 112.345C234.83 112.381 234.909 112.434 234.976 112.501C235.043 112.568 235.096 112.647 235.132 112.735C235.169 112.822 235.187 112.916 235.187 113.011C235.187 113.105 235.169 113.199 235.132 113.286C235.096 113.374 235.043 113.453 234.976 113.52C234.909 113.587 234.83 113.64 234.742 113.676C234.655 113.712 234.561 113.73 234.466 113.73H186.362C184.133 113.733 181.996 114.621 180.42 116.199C178.845 117.778 177.96 119.917 177.96 122.147C177.96 124.378 178.845 126.517 180.42 128.096C181.996 129.674 184.133 130.562 186.362 130.565H234.466C234.657 130.565 234.84 130.641 234.975 130.776C235.11 130.911 235.185 131.094 235.185 131.284Z" fill="#3F3D56"/>
<path d="M234.035 117.039H183.702C183.664 117.04 183.627 117.025 183.6 116.998C183.573 116.971 183.557 116.935 183.557 116.897C183.557 116.859 183.572 116.822 183.598 116.795C183.625 116.768 183.661 116.752 183.699 116.752H234.035C234.073 116.752 234.109 116.767 234.136 116.794C234.162 116.821 234.177 116.858 234.177 116.895C234.177 116.933 234.162 116.97 234.136 116.997C234.109 117.024 234.073 117.039 234.035 117.039H234.035Z" fill="#CCCCCC"/>
<path d="M234.035 120.493H183.702C183.664 120.493 183.627 120.478 183.6 120.451C183.573 120.425 183.557 120.388 183.557 120.35C183.557 120.312 183.572 120.275 183.598 120.248C183.625 120.221 183.661 120.205 183.699 120.205H234.035C234.073 120.205 234.109 120.221 234.136 120.248C234.162 120.275 234.177 120.311 234.177 120.349C234.177 120.387 234.162 120.423 234.136 120.45C234.109 120.477 234.073 120.492 234.035 120.493H234.035Z" fill="#CCCCCC"/>
<path d="M234.035 123.946H183.702C183.664 123.946 183.627 123.931 183.6 123.905C183.573 123.878 183.557 123.842 183.557 123.803C183.557 123.765 183.572 123.729 183.598 123.702C183.625 123.674 183.661 123.659 183.699 123.658H234.035C234.073 123.659 234.109 123.674 234.136 123.701C234.162 123.728 234.177 123.764 234.177 123.802C234.177 123.84 234.162 123.876 234.136 123.903C234.109 123.93 234.073 123.946 234.035 123.946H234.035Z" fill="#CCCCCC"/>
<path d="M234.035 127.399H183.702C183.664 127.4 183.627 127.385 183.6 127.358C183.573 127.331 183.557 127.295 183.557 127.257C183.557 127.219 183.572 127.182 183.598 127.155C183.625 127.128 183.661 127.112 183.699 127.112H234.035C234.073 127.112 234.109 127.127 234.136 127.154C234.162 127.181 234.177 127.218 234.177 127.255C234.177 127.293 234.162 127.33 234.136 127.357C234.109 127.384 234.073 127.399 234.035 127.399H234.035Z" fill="#CCCCCC"/>
<path d="M179.025 38.5264H157.685C157.483 38.5262 157.283 38.5727 157.101 38.6623L151.715 41.3601C151.538 41.4355 151.387 41.5614 151.281 41.7221C151.174 41.8828 151.118 42.0713 151.118 42.264C151.118 42.4567 151.174 42.6451 151.281 42.8058C151.387 42.9665 151.538 43.0924 151.715 43.1678L157.101 45.8656C157.283 45.9552 157.483 46.0017 157.685 46.0015H179.025C179.32 46.0186 179.608 45.919 179.83 45.7244C180.051 45.5298 180.187 45.2558 180.207 44.9618V39.5661C180.187 39.2721 180.051 38.9981 179.83 38.8035C179.608 38.6089 179.32 38.5094 179.025 38.5264Z" fill="#3F3D56"/>
<path d="M180.207 39.5661V44.9618C180.187 45.2558 180.051 45.5298 179.83 45.7244C179.609 45.919 179.32 46.0186 179.025 46.0016H174.774V38.5264H179.025C179.32 38.5094 179.609 38.6089 179.83 38.8035C180.051 38.9982 180.187 39.2721 180.207 39.5661Z" fill="#3D957E"/>
<path d="M51.0849 144.253C53.8327 145.219 56.783 145.462 59.6515 144.956C62.52 144.45 65.2101 143.214 67.4625 141.366C73.1988 136.549 74.9973 128.613 76.4607 121.264C77.9035 114.019 79.3463 106.773 80.7891 99.5279L71.7271 105.771C65.2103 110.261 58.5467 114.894 54.0345 121.397C49.5222 127.9 47.5526 136.778 51.1781 143.814" fill="#E6E6E6"/>
<path d="M51.8595 170.569C50.9423 163.885 49.9992 157.114 50.6425 150.358C51.2139 144.358 53.0435 138.497 56.7683 133.692C58.7454 131.146 61.1511 128.965 63.8774 127.247C64.5883 126.798 65.2426 127.925 64.5348 128.372C59.8176 131.355 56.169 135.76 54.1151 140.951C51.8466 146.724 51.4823 153.017 51.8732 159.15C52.1096 162.859 52.6106 166.543 53.1155 170.223C53.1553 170.389 53.1305 170.564 53.0461 170.713C52.9616 170.862 52.8239 170.973 52.6607 171.024C52.4941 171.069 52.3166 171.047 52.1666 170.961C52.0167 170.876 51.9063 170.735 51.8595 170.569L51.8595 170.569Z" fill="#F2F2F2"/>
<path d="M60.6937 158.741C61.8722 160.533 63.4922 161.991 65.3974 162.975C67.3027 163.959 69.4292 164.435 71.5719 164.358C77.0786 164.097 81.6694 160.251 85.802 156.6L98.0255 145.802L89.9356 145.415C84.1178 145.136 78.1499 144.876 72.6087 146.671C67.0675 148.466 61.957 152.787 60.9438 158.525" fill="#E6E6E6"/>
<path d="M49.2675 174.412C53.6821 166.596 58.8026 157.91 67.9521 155.134C70.4961 154.364 73.1637 154.089 75.8111 154.322C76.6455 154.394 76.4372 155.681 75.6043 155.609C71.1666 155.24 66.7374 156.413 63.0625 158.929C59.5262 161.337 56.7728 164.686 54.4423 168.236C53.0149 170.411 51.7362 172.678 50.4573 174.943C50.0486 175.666 48.854 175.144 49.2675 174.412L49.2675 174.412Z" fill="#F2F2F2"/>
<path d="M42.194 182.638C42.3427 180.914 42.9615 179.263 43.983 177.866C45.0045 176.469 46.3894 175.38 47.9871 174.716V170.198H55.5612V174.858C57.0802 175.555 58.3875 176.642 59.3497 178.008C60.312 179.375 60.8948 180.973 61.0388 182.638L62.8198 203.353H40.413L42.194 182.638Z" fill="#F2F2F2"/>
<path d="M299.777 83.7314L297.523 82.7821L295.978 71.4807H275.394L273.719 82.7359L271.703 83.7444C271.607 83.7927 271.529 83.8721 271.484 83.9698C271.438 84.0675 271.427 84.1778 271.451 84.2828C271.476 84.3878 271.536 84.4814 271.62 84.5483C271.705 84.6153 271.809 84.6517 271.917 84.6517H299.591C299.701 84.6517 299.808 84.6135 299.894 84.5435C299.979 84.4734 300.038 84.376 300.06 84.2676C300.082 84.1592 300.066 84.0466 300.014 83.9488C299.962 83.8511 299.878 83.7743 299.777 83.7314Z" fill="#E6E6E6"/>
<path d="M336.355 72.9844H235.243C234.713 72.9832 234.204 72.7715 233.83 72.3957C233.455 72.02 233.245 71.5109 233.245 70.9801V56.7142H338.353V70.9801C338.353 71.5109 338.143 72.02 337.768 72.3957C337.393 72.7715 336.885 72.9832 336.355 72.9844Z" fill="#CCCCCC"/>
<path d="M338.459 63.4566H233.152V2.41613C233.153 1.77554 233.408 1.16141 233.86 0.708455C234.313 0.2555 234.927 0.000712959 235.567 -3.8147e-06H336.044C336.684 0.000712947 337.298 0.255501 337.751 0.708455C338.204 1.16141 338.458 1.77554 338.459 2.41613L338.459 63.4566Z" fill="#3F3D56"/>
<path d="M332.169 59.0263H239.442C238.948 59.0257 238.475 58.8293 238.126 58.4801C237.777 58.1309 237.581 57.6575 237.58 57.1636V6.293C237.581 5.79914 237.777 5.32565 238.126 4.97643C238.475 4.62721 238.948 4.43078 239.442 4.43021H332.169C332.663 4.43078 333.136 4.62721 333.485 4.97643C333.834 5.32565 334.03 5.79914 334.031 6.293V57.1636C334.03 57.6575 333.834 58.1309 333.485 58.4801C333.136 58.8293 332.663 59.0257 332.169 59.0263Z" fill="white"/>
<path d="M307.746 76.976C308.345 76.4227 309.058 76.0075 309.834 75.7596C310.611 75.5117 311.432 75.4371 312.24 75.5411C313.048 75.6452 313.824 75.9253 314.513 76.3617C315.201 76.7981 315.785 77.3803 316.225 78.0671L328.767 75.836L331.981 83.1315L314.225 86.0334C313.022 86.6952 311.619 86.8928 310.281 86.5888C308.943 86.2847 307.763 85.5001 306.965 84.3837C306.166 83.2673 305.805 81.8965 305.949 80.5312C306.093 79.1659 306.732 77.9009 307.746 76.976Z" fill="#FFB6B6"/>
<path d="M319.359 86.2913L332.435 86.1282L334.09 86.1057L360.693 85.7704C360.693 85.7704 367.917 78.8745 374.208 71.7747L373.326 65.3938C372.466 59.1316 369.361 53.3954 364.59 49.2526C355.58 55.2761 350.355 67.1989 350.355 67.1989L333.86 71.1464L332.21 71.5412L321.961 73.9917L319.359 86.2913Z" fill="#3D957E"/>
<path d="M386.295 125.511H361.888C361.888 126.557 335.207 127.406 335.207 127.406C334.618 127.85 334.082 128.358 333.608 128.923C332.184 130.622 331.405 132.771 331.41 134.989V136.505C331.411 139.019 332.409 141.429 334.185 143.206C335.962 144.984 338.371 145.983 340.883 145.983H386.295C388.807 145.981 391.215 144.982 392.991 143.205C394.767 141.428 395.766 139.018 395.768 136.505V134.989C395.765 132.476 394.766 130.067 392.99 128.291C391.214 126.514 388.807 125.514 386.295 125.511Z" fill="#E4E4E4"/>
<path d="M368.546 145.607H358.694V202.504H368.546V145.607Z" fill="#E4E4E4"/>
<path d="M330.654 202.158C330.654 203.223 345.583 202.57 363.999 202.57C382.415 202.57 397.344 203.223 397.344 202.158C397.344 201.092 382.415 192.647 363.999 192.647C345.583 192.647 330.654 201.092 330.654 202.158Z" fill="#E4E4E4"/>
<path d="M324.036 195.656L316.704 195.656L313.216 167.359L324.037 167.36L324.036 195.656Z" fill="#FFB6B6"/>
<path d="M325.906 202.768L302.264 202.767V202.468C302.264 200.026 303.234 197.684 304.959 195.957C306.685 194.231 309.026 193.261 311.466 193.261H311.467L325.907 193.261L325.906 202.768Z" fill="#2F2E41"/>
<path d="M302.365 195.656L295.033 195.656L291.545 167.359L302.366 167.36L302.365 195.656Z" fill="#FFB6B6"/>
<path d="M304.235 202.768L280.593 202.767V202.468C280.593 200.026 281.563 197.684 283.289 195.957C285.014 194.231 287.355 193.261 289.795 193.261H289.796L304.236 193.261L304.235 202.768Z" fill="#2F2E41"/>
<path d="M368.045 32.7487C375.086 32.7487 380.794 27.0378 380.794 19.993C380.794 12.9483 375.086 7.23741 368.045 7.23741C361.004 7.23741 355.297 12.9483 355.297 19.993C355.297 27.0378 361.004 32.7487 368.045 32.7487Z" fill="#FFB6B6"/>
<path d="M388.679 107.39C388.679 107.39 392.956 130.021 376.681 132.903C360.406 135.785 336.912 137.811 336.912 137.811L326.361 187.061L312.187 185.795C312.187 185.795 314.072 126.508 318.708 121.87C323.344 117.231 352.644 103.343 352.644 103.343L388.679 107.39Z" fill="#2F2E41"/>
<path d="M356.892 97.9047L349.774 105.049C349.774 105.049 298.377 113.333 296.394 125.21C293.401 143.142 289.865 182.137 289.865 182.137L305.318 180.977L311.377 136.651L336.102 131.024L364.232 115.685L356.892 97.9047Z" fill="#2F2E41"/>
<path d="M380.313 12.3789C379.055 10.0032 377.456 5.26839 374.916 4.39027C373.505 3.92228 372.047 3.61153 370.568 3.46365L366.251 5.12513L368.601 3.29658C368.143 3.26931 367.686 3.24702 367.229 3.2297L364.316 4.35071L365.806 3.19091C363.09 3.16302 360.287 3.44556 358.183 5.09975C356.389 6.50994 354.611 11.852 354.324 14.1164C354.017 16.2827 354.124 18.4876 354.641 20.6136L355.379 21.3155C355.637 20.7234 355.831 20.1055 355.957 19.4721C356.222 18.2887 356.73 17.1735 357.449 16.1974C358.168 15.2213 359.082 14.4058 360.134 13.8028L360.174 13.7802C361.411 13.0834 362.913 13.1156 364.332 13.1667L371.07 13.4093C372.692 13.4677 374.438 13.5703 375.702 14.5879C376.505 15.3385 377.137 16.254 377.553 17.2718C378.181 18.5401 379.409 23.3241 379.409 23.3241C379.409 23.3241 380.103 22.421 380.436 23.0932C380.97 21.3396 381.294 19.5289 381.403 17.699C381.509 15.861 381.133 14.027 380.313 12.3789Z" fill="#2F2E41"/>
<path d="M424.902 25.5947C424.089 25.6483 423.297 25.8796 422.583 26.2724C421.869 26.6652 421.25 27.2099 420.768 27.8681C420.287 28.5264 419.956 29.2821 419.799 30.0822C419.641 30.8822 419.661 31.7071 419.857 32.4987L409.605 40.0651L412.681 47.42L427.008 36.5313C428.316 36.1145 429.425 35.2323 430.126 34.052C430.826 32.8716 431.07 31.4751 430.81 30.127C430.551 28.7789 429.806 27.5729 428.717 26.7376C427.628 25.9023 426.271 25.4956 424.902 25.5947Z" fill="#FFB6B6"/>
<path d="M423.252 41.0415L397.552 69.6002C397.552 69.6002 385.262 65.6636 375.756 61.3957L371.486 48.2733C370.495 45.229 370.072 42.0282 370.238 38.8307C383.415 35.3225 398.741 48.3761 398.741 48.3761L417.979 33.2989L423.252 41.0415Z" fill="#3D957E"/>
<path d="M363.284 109.499C358.698 107.914 353.957 106.276 348.843 105.66L348.623 105.634L348.684 105.421C353.978 86.8232 352.657 74.9263 350.062 57.0555C349.511 53.2008 350.22 49.2709 352.083 45.8524C353.947 42.4339 356.866 39.7102 360.404 38.0876L360.435 38.0734L375.041 37.1448L375.075 37.1428L385.697 40.2687C387.226 40.7218 388.563 41.6636 389.505 42.9499C390.447 44.2362 390.942 45.796 390.913 47.3904C390.798 53.2676 391.042 59.8292 391.3 66.776C391.88 82.3607 392.479 98.4761 389.078 108.932L389.06 108.987L389.015 109.023C385.888 111.571 381.97 112.948 377.938 112.916C373.17 112.916 368.304 111.234 363.284 109.499Z" fill="#3D957E"/>
<path d="M469.321 204H0.679192C0.49906 204 0.326306 203.928 0.198934 203.801C0.0715607 203.674 0 203.501 0 203.32C0 203.14 0.0715607 202.967 0.198934 202.84C0.326306 202.712 0.49906 202.641 0.679192 202.641H469.321C469.501 202.641 469.674 202.712 469.801 202.84C469.928 202.967 470 203.14 470 203.32C470 203.501 469.928 203.674 469.801 203.801C469.674 203.928 469.501 204 469.321 204Z" fill="#CCCCCC"/>
</g>
<defs>
<clipPath id="clip0_311_82">
<rect width="470" height="204" fill="white"/>
</clipPath>
</defs>
</svg>
