<svg width="32" height="32" viewBox="0 0 32 32" fill="none" xmlns="http://www.w3.org/2000/svg">
<path fill-rule="evenodd" clip-rule="evenodd" d="M21.1791 9.85415e-07H31.3846C31.5478 9.85415e-07 31.7044 0.0648361 31.8198 0.180243C31.9352 0.29565 32 0.452175 32 0.615386V10.8209C32.0002 10.9428 31.9642 11.062 31.8966 11.1634C31.829 11.2648 31.7328 11.3438 31.6203 11.3905C31.5077 11.4372 31.3838 11.4494 31.2643 11.4255C31.1447 11.4017 31.035 11.3429 30.9489 11.2566L27.1508 7.45846L17.92 16.6892C17.57 17.0153 17.1071 17.1929 16.6289 17.1844C16.1506 17.176 15.6943 16.9822 15.356 16.644C15.0178 16.3057 14.824 15.8494 14.8156 15.3711C14.8071 14.8929 14.9847 14.43 15.3108 14.08L24.5415 4.84923L20.7434 1.05108C20.6571 0.965011 20.5983 0.855261 20.5745 0.735743C20.5506 0.616225 20.5628 0.492321 20.6095 0.379739C20.6562 0.267156 20.7352 0.170965 20.8366 0.103361C20.938 0.0357564 21.0572 -0.000217064 21.1791 9.85415e-07ZM4.30769 2.46154C3.16522 2.46154 2.06954 2.91538 1.26169 3.72323C0.453845 4.53108 0 5.62676 0 6.76923V27.6923C0 30.0702 1.92985 32 4.30769 32H25.2308C26.3732 32 27.4689 31.5462 28.2768 30.7383C29.0846 29.9305 29.5385 28.8348 29.5385 27.6923V19.0769C29.5385 18.5873 29.344 18.1177 28.9977 17.7715C28.6515 17.4253 28.1819 17.2308 27.6923 17.2308C27.2027 17.2308 26.7331 17.4253 26.3869 17.7715C26.0407 18.1177 25.8462 18.5873 25.8462 19.0769V27.6923C25.8462 27.8555 25.7813 28.012 25.6659 28.1275C25.5505 28.2429 25.394 28.3077 25.2308 28.3077H4.30769C4.14448 28.3077 3.98796 28.2429 3.87255 28.1275C3.75714 28.012 3.69231 27.8555 3.69231 27.6923V6.76923C3.69231 6.60602 3.75714 6.4495 3.87255 6.33409C3.98796 6.21868 4.14448 6.15385 4.30769 6.15385H12.9231C13.4127 6.15385 13.8823 5.95934 14.2285 5.61312C14.5747 5.2669 14.7692 4.79732 14.7692 4.30769C14.7692 3.81806 14.5747 3.34849 14.2285 3.00227C13.8823 2.65604 13.4127 2.46154 12.9231 2.46154H4.30769Z" fill="#3D957E"/>
</svg>
