<?xml version="1.0" encoding="UTF-8"?>
<svg xmlns="http://www.w3.org/2000/svg" xmlns:xlink="http://www.w3.org/1999/xlink" width="64pt" height="63pt" viewBox="0 0 64 63" version="1.1">
<g id="surface1">
<path style=" stroke:none;fill-rule:nonzero;fill:rgb(100%,100%,100%);fill-opacity:1;" d="M 3.179688 14.972656 L 60.9375 16.832031 L 62.0625 33.785156 L 58.679688 48.695312 L 36.480469 55.597656 L 2.058594 48.695312 L 1.113281 31.921875 Z M 3.179688 14.972656 "/>
<path style=" stroke:none;fill-rule:evenodd;fill:rgb(8.627451%,57.254902%,12.941176%);fill-opacity:1;" d="M 64 14.058594 C 64 6.292969 57.648438 0 49.808594 0 L 14.191406 0 C 6.351562 0 0 6.292969 0 14.058594 L 0 48.941406 C 0 56.707031 6.351562 63 14.191406 63 L 49.808594 63 C 57.648438 63 64 56.707031 64 48.941406 Z M 28.742188 28.089844 C 28.878906 27.683594 29.457031 27.796875 29.421875 28.226562 C 29.40625 28.375 29.394531 28.527344 29.378906 28.679688 C 29.292969 29.890625 29.195312 31.140625 29.082031 32.433594 C 28.96875 33.726562 28.839844 35.035156 28.699219 36.355469 C 28.554688 37.648438 28.429688 38.84375 28.316406 39.941406 C 28.203125 41.039062 28.101562 41.992188 28.015625 42.808594 C 27.960938 43.625 27.933594 44.1875 27.933594 44.496094 C 27.933594 45.507812 28.257812 46.335938 28.910156 46.984375 C 29.59375 47.601562 30.742188 47.910156 32.359375 47.910156 L 34.699219 47.910156 C 35.058594 47.910156 35.335938 47.636719 35.382812 47.285156 C 35.382812 47.28125 35.382812 47.28125 35.382812 47.277344 C 35.410156 47.082031 35.46875 46.40625 35.550781 45.253906 C 35.636719 44.101562 35.738281 42.695312 35.851562 41.039062 C 35.992188 39.378906 36.121094 37.578125 36.234375 35.640625 C 36.375 33.699219 36.503906 31.832031 36.617188 30.03125 C 36.757812 28.203125 36.859375 26.574219 36.914062 25.140625 C 37 23.675781 37.042969 22.621094 37.042969 21.976562 C 37.042969 21.328125 36.984375 20.765625 36.871094 20.289062 C 36.757812 19.785156 36.546875 19.363281 36.234375 19.023438 C 35.921875 18.6875 35.480469 18.433594 34.914062 18.265625 C 34.375 18.066406 33.652344 17.96875 32.742188 17.96875 L 26.101562 17.96875 C 25.734375 17.96875 25.476562 18.054688 25.335938 18.222656 C 25.191406 18.363281 25.09375 18.519531 25.035156 18.6875 C 24.582031 20.429688 24.199219 21.878906 23.886719 23.03125 C 23.605469 24.15625 23.363281 25.097656 23.164062 25.855469 C 22.964844 26.613281 22.796875 27.246094 22.652344 27.753906 C 22.511719 28.261719 22.382812 28.738281 22.269531 29.1875 C 22.15625 29.609375 22.027344 30.074219 21.886719 30.578125 C 21.746094 31.085938 21.558594 31.730469 21.332031 32.519531 C 21.132812 33.277344 20.878906 34.234375 20.566406 35.386719 C 20.289062 36.410156 18.8125 36.351562 18.640625 35.304688 C 18.488281 34.390625 18.351562 33.519531 18.226562 32.6875 C 17.941406 30.578125 17.671875 28.722656 17.417969 27.121094 C 17.191406 25.519531 16.933594 24.140625 16.652344 22.988281 C 16.367188 21.808594 15.996094 20.851562 15.542969 20.121094 C 15.089844 19.390625 14.507812 18.855469 13.796875 18.519531 C 13.089844 18.152344 12.179688 17.96875 11.074219 17.96875 L 5.113281 17.96875 C 4.972656 17.96875 4.816406 18.027344 4.644531 18.136719 C 4.476562 18.222656 4.390625 18.378906 4.390625 18.601562 C 4.390625 19.136719 4.375 19.585938 4.347656 19.953125 C 4.347656 20.289062 4.332031 20.65625 4.304688 21.046875 C 4.304688 21.441406 4.277344 21.890625 4.21875 22.398438 C 4.191406 22.902344 4.148438 23.566406 4.089844 24.378906 C 4.035156 25.195312 3.949219 26.222656 3.835938 27.457031 C 3.75 28.667969 3.636719 30.1875 3.496094 32.011719 C 3.382812 33.363281 3.269531 34.699219 3.15625 36.019531 C 3.070312 37.3125 2.984375 38.507812 2.898438 39.605469 C 2.816406 40.699219 2.742188 41.65625 2.6875 42.472656 C 2.660156 43.257812 2.644531 43.820312 2.644531 44.160156 C 2.644531 45.394531 2.96875 46.335938 3.625 46.984375 C 4.304688 47.601562 5.453125 47.910156 7.070312 47.910156 L 9.414062 47.910156 C 9.667969 47.910156 9.839844 47.800781 9.925781 47.574219 C 10.039062 47.347656 10.09375 46.816406 10.09375 45.972656 C 10.09375 45.210938 10.109375 44.242188 10.136719 43.0625 C 10.164062 41.851562 10.195312 40.558594 10.222656 39.183594 C 10.25 37.777344 10.277344 36.34375 10.308594 34.878906 C 10.363281 33.417969 10.40625 32.054688 10.433594 30.789062 C 10.464844 29.523438 10.492188 28.414062 10.519531 27.457031 C 10.527344 27.160156 10.972656 27.113281 11.035156 27.402344 C 11.238281 28.296875 11.433594 29.242188 11.625 30.242188 C 11.996094 31.984375 12.363281 33.769531 12.734375 35.597656 C 13.101562 37.425781 13.472656 39.222656 13.839844 40.996094 C 14.238281 42.738281 14.648438 44.328125 15.074219 45.761719 C 15.246094 46.183594 15.488281 46.535156 15.800781 46.816406 C 16.140625 47.097656 16.523438 47.320312 16.949219 47.488281 C 17.402344 47.660156 17.886719 47.769531 18.394531 47.828125 C 18.90625 47.882812 19.402344 47.910156 19.886719 47.910156 C 20.652344 47.910156 21.207031 47.855469 21.546875 47.742188 C 21.914062 47.601562 22.15625 47.417969 22.269531 47.195312 C 22.640625 46.265625 23.050781 45.183594 23.503906 43.949219 C 23.957031 42.683594 24.414062 41.359375 24.867188 39.984375 C 25.347656 38.605469 25.816406 37.199219 26.273438 35.765625 C 26.726562 34.304688 27.164062 32.925781 27.589844 31.632812 C 28.015625 30.339844 28.398438 29.160156 28.742188 28.089844 Z M 39.050781 18.136719 C 38.910156 18.222656 38.824219 18.378906 38.796875 18.601562 C 38.769531 19.050781 38.738281 19.515625 38.710938 19.992188 C 38.710938 20.472656 38.683594 21.1875 38.625 22.144531 C 38.597656 23.074219 38.511719 24.367188 38.371094 26.023438 C 38.257812 27.683594 38.085938 29.90625 37.859375 32.6875 C 37.746094 34.039062 37.632812 35.332031 37.519531 36.566406 C 37.433594 37.777344 37.347656 38.886719 37.265625 39.898438 C 37.207031 40.910156 37.152344 41.78125 37.09375 42.515625 C 37.066406 43.246094 37.050781 43.792969 37.050781 44.160156 C 37.050781 45.144531 37.277344 45.914062 37.730469 46.476562 C 38.1875 47.039062 38.824219 47.460938 39.648438 47.742188 C 40.472656 48.023438 41.449219 48.191406 42.585938 48.25 C 43.75 48.304688 45.027344 48.332031 46.417969 48.332031 C 49.425781 48.332031 51.910156 47.828125 53.867188 46.816406 C 55.855469 45.773438 57.429688 44.410156 58.59375 42.726562 C 59.757812 41.039062 60.566406 39.113281 61.019531 36.945312 C 61.5 34.753906 61.742188 32.519531 61.742188 30.242188 C 61.742188 27.992188 61.53125 26.066406 61.105469 24.464844 C 60.679688 22.863281 59.953125 21.554688 58.933594 20.542969 C 57.941406 19.53125 56.621094 18.785156 54.972656 18.308594 C 53.355469 17.828125 51.339844 17.589844 48.929688 17.589844 C 47.964844 17.589844 46.628906 17.660156 44.925781 17.800781 C 43.253906 17.914062 41.449219 17.96875 39.519531 17.96875 C 39.378906 17.96875 39.222656 18.027344 39.050781 18.136719 Z M 50.503906 40.660156 C 49.566406 41.332031 48.304688 41.671875 46.714844 41.671875 L 45.863281 41.671875 C 45.21875 41.617188 44.757812 41.042969 44.808594 40.402344 C 44.890625 39.378906 44.972656 38.296875 45.054688 37.15625 C 45.167969 35.554688 45.269531 33.980469 45.351562 32.433594 C 45.464844 30.859375 45.566406 29.371094 45.652344 27.964844 C 45.691406 27.257812 45.730469 26.597656 45.765625 25.984375 C 45.824219 24.992188 46.609375 24.183594 47.609375 24.128906 C 48.089844 24.097656 48.488281 24.085938 48.800781 24.085938 C 49.824219 24.085938 50.675781 24.238281 51.355469 24.546875 C 52.035156 24.828125 52.5625 25.265625 52.929688 25.855469 C 53.328125 26.445312 53.597656 27.191406 53.738281 28.089844 C 53.910156 28.960938 53.996094 29.988281 53.996094 31.167969 C 53.996094 32.265625 53.910156 33.433594 53.738281 34.667969 C 53.570312 35.90625 53.230469 37.046875 52.71875 38.085938 C 52.207031 39.125 51.46875 39.984375 50.503906 40.660156 Z M 50.503906 40.660156 "/>
<path style=" stroke:none;fill-rule:nonzero;fill:rgb(100%,100%,100%);fill-opacity:1;" d="M 39.964844 14.386719 C 39.820312 14.382812 39.675781 14.332031 39.550781 14.226562 C 39.421875 14.121094 39.3125 13.96875 39.238281 13.785156 C 39.164062 13.601562 39.121094 13.390625 39.121094 13.175781 L 39.121094 -4.582031 C 39.109375 -5.308594 39.296875 -6.011719 39.644531 -6.539062 C 39.992188 -7.066406 40.46875 -7.378906 40.976562 -7.402344 L 49.0625 -7.402344 C 49.570312 -7.378906 50.046875 -7.066406 50.394531 -6.539062 C 50.742188 -6.011719 50.929688 -5.308594 50.917969 -4.582031 L 50.917969 13.175781 C 50.917969 13.386719 50.878906 13.59375 50.804688 13.777344 C 50.730469 13.957031 50.625 14.109375 50.496094 14.214844 C 50.367188 14.320312 50.222656 14.378906 50.074219 14.378906 C 49.925781 14.378906 49.78125 14.320312 49.652344 14.214844 L 44.875 10.332031 L 40.386719 14.203125 C 40.257812 14.316406 40.113281 14.378906 39.964844 14.386719 Z M 39.964844 14.386719 "/>
</g>
</svg>
