<svg width="42" height="48" viewBox="0 0 42 48" fill="none" xmlns="http://www.w3.org/2000/svg">
<path fill-rule="evenodd" clip-rule="evenodd" d="M11.7057 2.01637C6.85706 -1.71911 0 0.756742 0 6.86239V17.7303C0 29.0852 9.21004 38.2902 20.5712 38.2902C31.9324 38.2902 41.1424 29.0852 41.1424 17.7303V6.86239C41.1424 0.756742 34.2853 -1.71909 29.4367 2.01637L21.7834 9.66547C21.1139 10.3346 20.0285 10.3346 19.359 9.66547L11.7057 2.01637ZM10.8491 9.09318C8.63806 7.12886 8.57133 8.69761 8.57133 11.6543V17.7303C8.57133 26.2465 12.0503 29.7236 20.5712 29.7236C29.0921 29.7236 32.5711 26.2465 32.5711 17.7303V11.6543C32.5711 8.6976 32.5043 7.12886 30.2933 9.09318L21.7101 16.7185C21.0606 17.2955 20.0818 17.2955 19.4323 16.7185L10.8491 9.09318Z" fill="url(#paint0_linear_304_11)"/>
<path d="M11.7064 2.01642C6.85767 -2.29054 0.000610352 0.75679 0.000610352 6.86244V14.3037C0.000610352 14.3037 1.15401 9.96537 3.42914 9.09322C7.71481 7.45037 10.3529 10.5556 12.564 12.5199L19.4329 18.4319C20.0824 19.0089 21.0612 19.0089 21.7107 18.4319L28.5796 12.5199C30.7907 10.5556 33.4288 7.45037 37.7145 9.09322C39.9896 9.96537 41.143 14.3037 41.143 14.3037V6.86244C41.143 0.75679 34.2859 -2.29055 29.4373 2.01642L21.7107 9.09322C21.0413 9.76232 20.1024 9.76232 19.4329 9.09322L11.7064 2.01642Z" fill="url(#paint1_linear_304_11)"/>
<path d="M23.9999 48C23.9999 43.2688 27.8349 39.4333 32.5656 39.4333H41.1425C41.1425 44.1646 37.3075 48 32.5768 48H23.9999Z" fill="url(#paint2_linear_304_11)"/>
<path d="M17.1427 48C17.1427 43.2688 13.3077 39.4333 8.57694 39.4333H0C0 44.1646 3.83501 48 8.56574 48H17.1427Z" fill="url(#paint3_linear_304_11)"/>
<defs>
<linearGradient id="paint0_linear_304_11" x1="20.5712" y1="6.59367" x2="20.5712" y2="38.2903" gradientUnits="userSpaceOnUse">
<stop offset="0.145833" stop-color="#3D957E"/>
<stop offset="0.317708" stop-color="#5BB081"/>
</linearGradient>
<linearGradient id="paint1_linear_304_11" x1="20.5718" y1="-0.00460424" x2="20.5718" y2="17.1513" gradientUnits="userSpaceOnUse">
<stop stop-color="#F9F871"/>
<stop offset="1" stop-color="#BBE376"/>
</linearGradient>
<linearGradient id="paint2_linear_304_11" x1="41.143" y1="39.4287" x2="23.9964" y2="47.9926" gradientUnits="userSpaceOnUse">
<stop stop-color="#5BB081"/>
<stop offset="1" stop-color="#3D957E"/>
</linearGradient>
<linearGradient id="paint3_linear_304_11" x1="-4.50947e-06" y1="39.4333" x2="17.1389" y2="48.0075" gradientUnits="userSpaceOnUse">
<stop stop-color="#5BB081"/>
<stop offset="1" stop-color="#3D957E"/>
</linearGradient>
</defs>
</svg>
