<?xml version="1.0" standalone="no"?>
<!DOCTYPE svg PUBLIC "-//W3C//DTD SVG 20010904//EN"
 "http://www.w3.org/TR/2001/REC-SVG-20010904/DTD/svg10.dtd">
<svg version="1.0" xmlns="http://www.w3.org/2000/svg"
 width="768.000000pt" height="768.000000pt" viewBox="0 0 768.000000 768.000000"
 preserveAspectRatio="xMidYMid meet">
<metadata>
Created by potrace 1.14, written by Peter Selinger 2001-2017
</metadata>
<g transform="translate(0.000000,768.000000) scale(0.100000,-0.100000)"
fill="#000000" stroke="none">
<path d="M1395 7669 c-22 -4 -56 -10 -76 -13 -125 -19 -347 -128 -454 -222
-16 -14 -34 -29 -40 -32 -20 -14 -119 -128 -161 -188 -42 -59 -123 -234 -139
-301 -3 -10 -13 -49 -22 -88 -17 -65 -18 -150 -18 -1140 0 -956 3 -1155 19
-1245 3 -14 7 -43 10 -65 7 -56 15 -101 28 -165 6 -30 12 -62 13 -70 1 -8 10
-44 19 -80 21 -76 21 -76 30 -115 4 -16 10 -37 13 -45 4 -8 7 -17 8 -20 5 -15
29 -96 31 -105 7 -26 76 -199 104 -261 75 -167 221 -433 243 -442 4 -2 7 -10
7 -18 0 -8 5 -14 10 -14 6 0 10 -5 10 -10 0 -10 126 -190 140 -200 4 -3 11
-12 16 -21 5 -9 29 -40 54 -69 234 -272 446 -461 725 -645 141 -93 187 -120
370 -209 151 -73 369 -163 377 -155 2 1 14 -4 28 -11 13 -7 38 -17 55 -21 16
-4 75 -19 130 -34 55 -15 110 -28 122 -30 11 -2 29 -6 40 -9 10 -3 34 -8 53
-11 19 -3 42 -8 50 -10 8 -3 35 -7 60 -10 25 -3 54 -7 65 -9 28 -5 131 -17
181 -20 22 -1 45 -5 50 -7 24 -12 479 0 593 15 20 3 60 8 90 11 30 4 63 9 75
11 12 3 37 7 56 10 141 19 528 133 665 195 28 12 52 23 55 24 36 12 208 96
295 145 317 176 647 444 875 709 30 36 63 73 73 83 9 10 17 20 17 23 0 4 8 15
52 66 9 11 43 59 75 107 32 48 61 89 64 92 12 11 109 178 109 189 0 6 4 11 8
11 8 0 142 269 148 295 2 6 16 42 32 80 48 117 121 339 138 420 2 11 6 32 10
47 3 15 5 29 4 30 -1 2 3 15 9 30 6 15 13 48 16 73 3 26 9 65 14 88 5 23 12
69 16 102 4 33 8 74 11 90 17 131 27 2055 11 2205 -13 119 -59 296 -82 312 -5
4 -6 8 -2 8 11 0 -68 145 -119 216 -66 94 -179 201 -279 266 -85 55 -250 123
-345 142 -14 3 -36 8 -50 11 -56 14 -286 14 -367 0 -100 -18 -229 -58 -290
-91 -25 -13 -50 -24 -55 -24 -7 0 -162 -97 -191 -120 -20 -16 -99 -84 -128
-110 -15 -14 -62 -56 -104 -95 -42 -38 -93 -86 -114 -105 -32 -30 -186 -171
-257 -235 -76 -69 -202 -185 -234 -215 -20 -19 -70 -64 -109 -100 -40 -36 -89
-81 -110 -100 -34 -32 -165 -153 -264 -243 -87 -78 -189 -101 -278 -62 -24 11
-46 22 -49 25 -3 3 -27 25 -55 49 -27 25 -97 88 -155 141 -58 53 -122 112
-143 131 -21 19 -55 50 -76 69 -20 19 -81 76 -136 125 -54 50 -110 101 -125
115 -15 14 -62 57 -104 95 -43 39 -94 86 -115 105 -21 19 -84 78 -141 130 -57
52 -142 130 -189 173 -46 43 -103 91 -125 107 -79 55 -187 120 -201 120 -8 0
-15 4 -15 9 0 5 -17 15 -37 21 -21 7 -42 16 -47 21 -6 5 -19 9 -31 9 -12 0
-25 4 -31 9 -12 11 -112 36 -184 46 -14 2 -25 5 -25 6 0 6 -266 5 -300 -2z
m4290 -1565 c6 -84 6 -1405 0 -1489 -12 -182 -21 -280 -30 -325 -2 -14 -7 -41
-10 -60 -16 -99 -73 -310 -102 -380 -3 -8 -7 -17 -8 -20 -16 -48 -88 -194 -97
-198 -5 -2 -8 -8 -8 -14 0 -5 -11 -24 -25 -42 -14 -18 -25 -38 -25 -44 0 -6
-3 -12 -7 -14 -5 -1 -26 -25 -48 -52 -76 -96 -209 -212 -315 -275 -94 -57
-304 -146 -389 -167 -9 -2 -41 -10 -71 -18 -51 -14 -77 -20 -140 -30 -40 -7
-98 -16 -143 -21 -23 -3 -58 -7 -77 -10 -231 -32 -753 -21 -995 21 -11 2 -33
5 -50 8 -27 5 -86 17 -155 32 -84 18 -238 74 -340 122 -59 28 -196 110 -231
139 -40 33 -133 118 -148 136 -9 10 -26 30 -39 44 -12 14 -30 37 -40 51 -9 15
-22 31 -29 35 -7 4 -13 14 -13 22 0 7 -3 15 -7 17 -30 13 -198 388 -175 388 4
0 2 4 -4 8 -5 4 -16 34 -24 67 -8 33 -14 62 -15 65 -1 3 -5 25 -10 50 -5 25
-9 47 -10 50 -5 20 -18 100 -20 120 -2 14 -6 50 -10 80 -4 30 -9 75 -12 100
-7 59 -12 1572 -6 1628 3 23 9 42 14 42 4 0 41 -20 81 -44 106 -65 264 -194
449 -367 19 -19 56 -52 81 -74 40 -35 69 -61 164 -142 12 -10 48 -41 80 -69
32 -28 97 -84 144 -124 47 -40 98 -84 115 -98 16 -15 77 -67 135 -116 58 -50
107 -93 110 -96 3 -3 34 -30 70 -60 36 -30 67 -57 70 -60 3 -3 34 -30 70 -60
35 -30 80 -69 100 -86 55 -49 104 -89 104 -86 1 2 15 -2 31 -9 17 -6 59 -12
95 -13 76 -1 148 29 216 92 23 20 78 69 124 107 45 39 90 77 100 85 68 59 138
120 166 145 19 17 40 35 46 40 49 40 352 301 374 323 8 7 14 11 14 9 0 -3 15
9 33 27 18 17 46 42 62 56 44 38 188 163 201 175 143 133 265 240 344 302 84
65 220 153 228 148 1 -1 5 -33 7 -71z"/>
<path d="M484 1283 c3 -48 12 -124 21 -168 14 -77 64 -245 75 -255 3 -3 6 -12
8 -20 11 -47 132 -259 154 -268 4 -2 8 -10 8 -17 0 -8 6 -18 13 -22 6 -4 37
-37 67 -73 56 -65 90 -99 177 -170 26 -22 157 -108 163 -108 3 0 28 -13 55
-29 44 -26 173 -80 208 -87 6 -2 19 -6 27 -9 8 -4 67 -18 130 -31 l115 -24
760 1 760 2 -3 45 c-7 114 -22 214 -44 295 -5 22 -11 45 -13 50 -2 9 -6 22
-22 62 -3 10 -7 20 -7 23 -1 3 -5 11 -9 17 -5 7 -6 13 -3 13 19 0 -161 307
-186 318 -5 2 -8 8 -8 13 0 34 -299 309 -336 309 -7 0 -14 4 -16 9 -8 21 -242
131 -313 147 -16 4 -34 9 -40 13 -5 3 -17 7 -25 9 -43 8 -58 11 -90 17 -19 3
-46 9 -60 13 -14 3 -373 7 -798 9 l-774 4 6 -88z"/>
<path d="M5538 1365 c-2 -2 -26 -7 -53 -10 -28 -4 -75 -13 -105 -21 -30 -8
-62 -16 -70 -18 -188 -46 -463 -209 -596 -355 -18 -20 -49 -54 -69 -76 -51
-55 -136 -185 -183 -280 -33 -65 -86 -205 -96 -250 -30 -134 -36 -170 -41
-268 l-5 -88 767 4 c423 2 786 7 808 11 118 21 270 64 325 91 14 7 39 19 55
26 38 17 164 88 179 100 6 5 34 26 62 46 185 136 360 362 444 573 27 67 67
197 74 242 3 18 8 44 11 58 4 20 17 166 17 190 0 31 2 31 -761 30 -417 -1
-761 -3 -763 -5z"/>
</g>
</svg>
